<?xml version="1.0" encoding="utf-8"?>
<!-- Generator: Adobe Illustrator 23.0.2, SVG Export Plug-In . SVG Version: 6.00 Build 0)  -->
<svg version="1.1" id="Camada_1" xmlns="http://www.w3.org/2000/svg" xmlns:xlink="http://www.w3.org/1999/xlink" x="0px" y="0px"
	 viewBox="0 0 1000 1000" style="enable-background:new 0 0 1000 1000;" xml:space="preserve">
<style type="text/css">
	.st0{fill-rule:evenodd;clip-rule:evenodd;fill:#0669DE;}
	.st1{fill-rule:evenodd;clip-rule:evenodd;fill:#FFFFFF;}
</style>
<title>Grid Clear Copy 4</title>
<desc>Created with Sketch.</desc>
<g id="Grid-Clear-Copy-4">
	<g id="Group">
		<circle id="Fundo" class="st0" cx="500" cy="500" r="315.4"/>
		<g id="Clip-2">
			<path class="st1" d="M408.8,388.8c-5.6,1-9.3,6.8-9.1,12.2c-0.1,33.8,0,67.6-0.1,101.4c-0.2,4.7,0.8,10.6,5.2,13.3
				c5.6,4.5,15.1,1.8,17.8-4.6c1.3-3,1.5-6.4,1.5-9.6c0-32.3-0.1-64.5,0-96.8c0-3.8-0.2-7.8-2.4-11.1
				C419.3,389.4,413.6,387.4,408.8,388.8z M323.6,434.8c-7.8,6.5-12.8,15.7-15,25.4c-2.3,8.5-1.9,17.5-0.1,26
				c1.7,8.6,5.5,17.1,12,23.2c9.8,9.9,26,11.9,38.7,6.7c4.4-1.9,7.8-5.3,10.9-8.8c-0.1,4.5,0.2,9.1-1.6,13.4
				c-2.3,6.1-8.5,10.2-15,11.1c-8.6,1.3-17.1-1.3-24.9-4.5c-4.4-1.5-9.2-3.9-13.7-1.6c-3.4,2.1-6.2,5.7-6.3,9.7
				c0.1,4.2,3.3,7.7,6.8,9.8c6.9,4.1,14.9,5.8,22.6,7.3c12.4,1.4,25.8,0.6,36.8-5.7c5.9-3.3,10.7-8.2,14.1-13.9
				c4.3-7.6,5.7-16.5,5.6-25c0-21.5,0-43.1,0-64.5c0-4.5-0.4-9.5-3.9-12.9c-4.1-4.5-11.7-4.4-16.5-1c-2.1,2-3.2,4.7-4.4,7.3
				c-2-2.5-4.4-4.7-7.1-6.6C350.6,423,334,425.6,323.6,434.8z M349.5,448.3c3.9-0.2,8,0.6,11.1,3c4.2,2.7,6.2,7.3,7.8,11.8
				c1.8,6.4,2.3,13.4,0,19.7c-1.6,5-4.7,10-9.6,12.4c-7.1,3.5-17,1.9-21.6-4.7c-4-4.8-5.1-11.2-5.6-17.2c0-6.6,1.8-13.4,6-18.7
				C340.4,450.8,344.9,448.5,349.5,448.3z M470.9,426.1c-7.1,0.3-14.3,2-20.4,5.8c-13.4,7.8-21.6,22.7-22.5,37.8
				c-0.3,10.4,1.9,21.2,7.9,30c4,6.3,9.8,11.4,16.5,14.7c12.9,6.6,29.4,5.9,41.8-1.5c11.8-6.6,18.9-19.4,21.1-32.2
				c2.5-16.4-3.3-34.3-16.5-45C491.2,429.3,481,425.7,470.9,426.1z M470.9,448.3c3.9-0.2,8,0.6,11.1,3c3.9,2.5,6.1,6.8,7.7,11
				c2.4,7.8,2.5,16.7-1.5,24c-2.8,6.2-9.2,11.1-16.5,10.6c-7.1,0.1-13.5-4.7-16.2-10.9c-4.7-10.3-3.9-23.4,3.6-32.3
				C461.9,450.2,466.5,448.5,470.9,448.3z M522.5,392.7c-2.2,2.9-3,6.5-2.9,10.1c0.1,33.1,0,66.1,0,99.1c0.1,3.4,0,7.1,1.9,10.1
				c3.2,6.2,12.3,7.4,17.9,3.7c2.4-2,3.5-5,4.8-7.7c5.8,8.2,16.8,12.1,26.7,10.6c8.9-1,17.3-5.3,23.3-11.8
				c6.5-7.2,10.9-16.3,12.2-25.9c1.5-8,0.1-16.3-1.7-24.1c-2.9-9.8-8.3-19.4-17.3-24.9c-12.8-8.8-31.3-7.3-43.3,2.4
				c-0.1-10,0-20,0-30c-0.1-3.9-0.1-8.4-2.9-11.5C537,386.8,526.9,387.1,522.5,392.7z M562.7,448.2c4.6-0.3,9.1,1.5,12.3,4.6
				c9.6,10.3,10,27.7,1,38.4c-5.6,6.6-16.8,7.6-23.3,1.8c-6.2-5.1-8.2-13.4-8.4-21.1c-0.3-6.6,2-13.1,6.1-18.3
				C553.4,450.1,558.1,448.4,562.7,448.2z M653.1,426.1c-7.1,0.3-14.3,2-20.4,5.8c-13.4,7.8-21.6,22.7-22.5,37.8
				c-0.3,10.4,1.9,21.2,7.9,30c4,6.3,9.7,11.4,16.5,14.7c12.9,6.6,29.4,5.9,41.8-1.5c11.8-6.6,18.9-19.4,21.1-32.2
				c2.5-16.4-3.3-34.3-16.5-45C673.3,429.3,663.2,425.7,653.1,426.1z M653.1,448.3c3.9-0.2,8,0.6,11.1,3c3.9,2.5,6.1,6.8,7.7,11
				c2.4,7.8,2.5,16.7-1.5,24c-2.8,6.2-9.2,11.1-16.5,10.6c-7.1,0.1-13.5-4.7-16.2-10.9c-4.7-10.3-3.9-23.4,3.6-32.3
				C644.1,450.2,648.6,448.5,653.1,448.3z M422.9,528.4c-11.2,1-21.5,7.6-27.5,16.8c-6.5,9.7-8.7,21.9-6.1,33.2
				c2.4,12.6,11.5,24.2,24,28.6c10.4,3.8,22.6,2.7,32.5-2.4c3.7-1.8,7.3-5.3,7-9.7c0.5-5.6-5.7-10.7-11.3-8.8
				c-4.9,1.5-9.6,4.3-15,3.7c-7,0-12.6-5.6-15.1-11.6c-3-8.8-2-19.6,4.8-26.5c4.4-4.1,10.9-5.3,16.6-3.6c4.4,0.9,8.4,4,13,3.2
				c6-1.4,8.6-8.9,6-14c-1.7-2.6-4.5-4.5-7.3-5.8C437.8,529.1,430.3,527.5,422.9,528.4z M563.5,529.7c-4.3,1.3-8,4.1-11.2,7.2
				c-0.7-1.7-1.2-3.6-2.6-4.9c-4.6-5.1-14.5-3.3-16.8,3.1c-1.9,3.7-1.3,8-1.5,12c0.1,15.4,0,30.7,0,46.1c0.1,4.2,0.2,9,3.4,12.4
				c4.1,4.4,12.2,3.8,15.8-1c2-2.4,2.5-5.6,2.5-8.6c0.1-11.5-0.1-23,0-34.6c0-3.9,0.4-7.9,2.7-11.2c4-5.3,12.5-5.8,17.6-1.9
				c2.6,2.4,4.3,5.8,4.6,9.4c0.2,12.3-0.3,24.6,0.1,36.9c0.1,3.6,0.4,7.5,2.8,10.5c2.1,2.2,5.1,3.9,8.3,3.4
				c5.9,0.2,10.6-5.5,10.3-11.1c0.4-12.3-0.1-24.6,0.1-36.9c0-4.3,1-9.1,4.8-11.9c3.5-3.4,8.9-3.3,13.3-1.7
				c4.2,1.8,6.5,6.5,6.9,10.8c0.2,11.5-0.2,23,0,34.6c0.1,4.2,0.1,8.9,2.7,12.5c3.4,4.4,10.5,4.8,14.8,1.5c3.4-2.4,4.2-6.9,4.1-10.7
				c-0.1-13,0-26.1-0.1-39.2c0.1-7.6-2.3-15.4-7.9-20.7c-6.6-5.8-16-8.3-24.7-7.1c-7.4,1.2-14.1,5.1-19.3,10.2
				c-2-2.1-4.1-4.1-6.5-5.8C580.9,528,571.5,527,563.5,529.7z M486,528.4c-4.5,0.6-9,1.7-12.9,3.9c-11.6,5.8-19,17.7-21.1,30
				c-2.4,15.1,3.5,31.6,16.4,40.6c14.3,10,35.8,8.3,48.1-4.1c15.8-15.7,15.8-43.9-0.2-59.5C508.7,531.4,497.1,527,486,528.4z
				 M487.4,547.8c5.9-1.2,12.3,1.6,15.3,6.7c5.4,8.5,5.6,20.1,0.1,28.7c-3.8,6.4-12.8,8.7-19.5,5.6c-8.1-4.1-10.9-13.9-10.2-22.3
				C473.4,558.4,478.5,548.9,487.4,547.8z M374.5,587c-5.8,1.1-10.1,7.2-8.9,13c0.9,5.3,6,9.8,11.6,9.4c6.3,0.3,12.2-5.7,11.3-11.9
				C388.4,590.7,381.1,585.1,374.5,587z"/>
		</g>
	</g>
</g>
</svg>
