<?xml version="1.0" encoding="utf-8"?>
<!-- Generator: Adobe Illustrator 23.0.2, SVG Export Plug-In . SVG Version: 6.00 Build 0)  -->
<svg version="1.1" id="Layer_1" xmlns="http://www.w3.org/2000/svg" xmlns:xlink="http://www.w3.org/1999/xlink" x="0px" y="0px"
	 viewBox="0 0 1080 1080" style="enable-background:new 0 0 1080 1080;" xml:space="preserve">
<style type="text/css">
	.st0{fill:#21C25E;}
	.st1{fill:#FFFFFF;}
</style>
<rect class="st0" width="1080" height="1080"/>
<path class="st1" d="M302.9,620h38V510h-38V620z M353.6,435.3h-25.3v25.3h25.3V435.3z M210.9,448h-36v32h34
	c21.6,0,33.9,10.5,33.9,29.6c0,19.6-12.3,30.4-33.9,30.4h-34v-60h-38v140h38v-48h36c43.7,0,68.7-23.7,68.7-63.7
	C279.7,470.2,254.6,448,210.9,448z M378.9,410h-76v76h76V410z M366.3,473.3h-50.7v-50.7h50.7V473.3z M587.6,448H553v32h32.7
	c21.6,0,33.9,10.5,33.9,29.6c0,19.6-12.3,30.4-33.9,30.4H553v-60h-38v140h38v-48h34.6c43.7,0,68.7-23.7,68.7-63.7
	C656.3,470.2,631.3,448,587.6,448z M904.3,488l-32.4,82l-32.3-82h-39l51.7,131.7L832.3,670h39.6l71.2-182H904.3L904.3,488z
	 M734.8,487.5c-23.1,0-40,5.4-59.6,15.2l11.8,26c13.7-7.6,27.6-11.5,39.4-11.5c18.2,0,27.6,8.1,27.6,22.1v2.7h-36.6
	c-32.4,0-50.3,14.9-50.3,39.6c0,24,17.2,41.2,45.4,41.2c18.4,0,31.5-6.2,41.5-17.2V620h37l-0.2-85.6
	C790.5,504.7,770.1,487.5,734.8,487.5z M756.9,575.8c-4,11.3-14.9,19.9-30.8,19.9c-12.8,0-20.7-6.7-20.7-16.7c0-10.6,7-15,21.5-15
	h30V575.8z M436.7,591.1c-18.4,0-31.4-14.5-31.4-35.8c0-21.1,13-35.3,31.4-35.3c13-0.2,23.1,5.2,30.2,14l25.5-18.4
	c-11.8-17.7-31.9-27.7-57.2-27.7c-40.5,0-67.7,27.2-67.7,67.7c0,40,27.2,67,67.2,67c27,0,47.6-10.8,58.6-29.2l-26-17.7
	C460.8,585.9,450.2,591.1,436.7,591.1z"/>
</svg>
